<svg xmlns="http://www.w3.org/2000/svg" id="Instagram" viewBox="0 0 48 48.002" width="48" height="48.002"><path d="M16.002 24.001c0 -4.418 3.581 -8.001 7.999 -8.001s8.001 3.583 8.001 8.001 -3.583 8.001 -8.001 8.001 -7.999 -3.583 -7.999 -8.001m-4.325 0c0 6.807 5.518 12.324 12.324 12.324s12.324 -5.518 12.324 -12.324 -5.518 -12.324 -12.324 -12.324S11.677 17.194 11.677 24.001m22.256 -12.813c0 1.59 1.289 2.881 2.881 2.881 1.59 0 2.881 -1.291 2.881 -2.881s-1.289 -2.879 -2.881 -2.879 -2.881 1.289 -2.881 2.879M14.304 43.537c-2.34 -0.107 -3.612 -0.496 -4.457 -0.826 -1.121 -0.436 -1.919 -0.956 -2.761 -1.795 -0.839 -0.839 -1.361 -1.638 -1.795 -2.759 -0.33 -0.845 -0.719 -2.117 -0.826 -4.457 -0.116 -2.53 -0.14 -3.29 -0.14 -9.699s0.025 -7.167 0.14 -9.699c0.107 -2.34 0.498 -3.61 0.826 -4.457 0.436 -1.121 0.956 -1.919 1.795 -2.761 0.839 -0.839 1.638 -1.361 2.761 -1.795 0.845 -0.33 2.117 -0.719 4.457 -0.826 2.53 -0.116 3.29 -0.14 9.697 -0.14 6.409 0 7.167 0.025 9.699 0.14 2.34 0.107 3.61 0.498 4.457 0.826 1.121 0.434 1.919 0.956 2.761 1.795 0.839 0.839 1.359 1.64 1.795 2.761 0.33 0.845 0.719 2.117 0.826 4.457 0.116 2.532 0.14 3.29 0.14 9.699 0 6.407 -0.023 7.167 -0.14 9.699 -0.107 2.34 -0.498 3.612 -0.826 4.457 -0.436 1.121 -0.956 1.919 -1.795 2.759s-1.64 1.359 -2.761 1.795c-0.845 0.33 -2.117 0.719 -4.457 0.826 -2.53 0.116 -3.29 0.14 -9.699 0.14 -6.407 0 -7.167 -0.023 -9.697 -0.14M14.106 0.145c-2.555 0.116 -4.3 0.522 -5.826 1.115 -1.578 0.613 -2.916 1.435 -4.252 2.768C2.695 5.362 1.873 6.7 1.26 8.28 0.667 9.806 0.262 11.551 0.145 14.106 0.027 16.665 0 17.483 0 24.001s0.027 7.336 0.145 9.895c0.116 2.555 0.522 4.3 1.115 5.826 0.613 1.578 1.433 2.918 2.768 4.252 1.334 1.334 2.672 2.154 4.252 2.768 1.528 0.593 3.271 0.998 5.826 1.115 2.561 0.116 3.377 0.145 9.895 0.145 6.52 0 7.336 -0.027 9.895 -0.145 2.555 -0.116 4.3 -0.522 5.826 -1.115 1.578 -0.615 2.916 -1.435 4.252 -2.768 1.334 -1.334 2.154 -2.673 2.768 -4.252 0.593 -1.526 1 -3.271 1.115 -5.826 0.116 -2.561 0.143 -3.377 0.143 -9.895s-0.027 -7.336 -0.143 -9.895c-0.116 -2.555 -0.522 -4.3 -1.115 -5.826 -0.615 -1.578 -1.435 -2.916 -2.768 -4.252C42.64 2.695 41.3 1.873 39.724 1.26c-1.528 -0.593 -3.273 -1 -5.826 -1.115 -2.559 -0.116 -3.377 -0.145 -9.895 -0.145 -6.52 0 -7.336 0.027 -9.897 0.145" fill="#f00075" class="color000000 svgShape"/></svg>