<svg xmlns="http://www.w3.org/2000/svg" xml:space="preserve" id="Spotify" viewBox="0 0 48 48" width="48" height="48"><path d="M24 0C10.767 0 0 10.767 0 24s10.767 24 24 24 24 -10.767 24 -24 -10.767 -24 -24 -24m11.01 34.644a1.5 1.5 0 0 1 -2.088 0.366c-5.625 -3.954 -14.982 -4.173 -21.3 -2.7a1.5 1.5 0 0 1 -0.678 -2.925c6.945 -1.608 17.325 -1.314 23.7 3.171a1.5 1.5 0 0 1 0.366 2.088m2.928 -5.853a1.5 1.5 0 0 1 -2.094 0.342C29.319 24.45 21.303 23.286 10.605 25.47a1.5 1.5 0 1 1 -0.603 -2.94c11.571 -2.361 20.337 -1.041 27.591 4.164a1.5 1.5 0 0 1 0.345 2.097m2.958 -7.86a1.5 1.5 0 0 1 -2.085 0.399c-8.271 -5.613 -20.844 -5.64 -28.983 -2.76a1.5 1.5 0 1 1 -0.999 -2.832C17.682 12.609 31.401 12.675 40.5 18.846a1.5 1.5 0 0 1 0.396 2.085" fill="#1ed760" class="color000000 svgShape"/></svg>