<svg fill="#fb233b" width="48px" height="48px" viewBox="0 0 1.92 1.92" version="1.1" xmlns="http://www.w3.org/2000/svg"><title>applemusic</title><path d="M1.378 0.819v0.428l0 0.006c0 0.031 -0.007 0.06 -0.019 0.085l0.001 -0.001a0.16 0.16 0 0 1 -0.103 0.085l-0.001 0a0.336 0.336 0 0 1 -0.08 0.013h-0.001l-0.007 0a0.14 0.14 0 0 1 -0.061 -0.267l0.001 0a0.312 0.312 0 0 1 0.074 -0.024l0.002 0c0.028 -0.006 0.057 -0.011 0.085 -0.018a0.046 0.046 0 0 0 0.038 -0.038l0 0c0.001 -0.004 0.002 -0.009 0.002 -0.014v0q0 -0.204 0 -0.408a0.06 0.06 0 0 0 -0.002 -0.014l0 0a0.022 0.022 0 0 0 -0.021 -0.018l-0.002 0h0a0.27 0.27 0 0 0 -0.037 0.005l0.002 0q-0.085 0.017 -0.171 0.034l-0.277 0.056c-0.001 0 -0.002 0.001 -0.004 0.001a0.034 0.034 0 0 0 -0.029 0.037v0q0 0.005 0 0.01 0 0.293 0 0.585l0 0.007c0 0.031 -0.006 0.06 -0.017 0.086l0.001 -0.002a0.161 0.161 0 0 1 -0.106 0.092l-0.001 0c-0.024 0.007 -0.051 0.012 -0.08 0.013h-0.001l-0.008 0a0.138 0.138 0 0 1 -0.136 -0.115l0 -0.001a0.14 0.14 0 0 1 0.086 -0.155l0.001 0a0.42 0.42 0 0 1 0.08 -0.023l0.003 0c0.022 -0.004 0.043 -0.009 0.065 -0.013a0.052 0.052 0 0 0 0.045 -0.052l0 -0.002v0l0 -0.666V0.52q0 -0.015 0.003 -0.028l0 0.001a0.052 0.052 0 0 1 0.041 -0.039l0 0c0.019 -0.005 0.039 -0.008 0.058 -0.012q0.082 -0.017 0.165 -0.033l0.17 -0.034 0.151 -0.03c0.014 -0.003 0.03 -0.006 0.048 -0.008l0.002 0a0.037 0.037 0 0 1 0.042 0.036c0.001 0.005 0.001 0.011 0.001 0.017v0q0 0.215 0 0.43zm0.482 -0.299 0 -0.007c0 -0.056 -0.007 -0.11 -0.019 -0.162l0.001 0.005a0.37 0.37 0 0 0 -0.162 -0.227l-0.002 -0.001a0.372 0.372 0 0 0 -0.138 -0.054l-0.002 0a0.75 0.75 0 0 0 -0.116 -0.011h-0.001c-0.003 0 -0.006 -0.001 -0.009 -0.001H0.509q-0.017 0.001 -0.034 0.002a0.522 0.522 0 0 0 -0.168 0.031l0.004 -0.001a0.377 0.377 0 0 0 -0.214 0.206l-0.001 0.002a0.408 0.408 0 0 0 -0.027 0.103l0 0.002c-0.004 0.026 -0.007 0.056 -0.007 0.087v0.001c0 0.002 -0.001 0.005 -0.001 0.007v0.916q0.001 0.016 0.002 0.032a0.492 0.492 0 0 0 0.038 0.181l-0.001 -0.003a0.375 0.375 0 0 0 0.24 0.209l0.003 0.001c0.028 0.008 0.061 0.014 0.095 0.017l0.002 0c0.042 0.004 0.083 0.004 0.125 0.004h0.827q0.062 0 0.122 -0.008l-0.005 0a0.399 0.399 0 0 0 0.174 -0.062l-0.002 0.001a0.381 0.381 0 0 0 0.14 -0.163l0.001 -0.002a0.402 0.402 0 0 0 0.027 -0.097l0 -0.002c0.007 -0.041 0.01 -0.089 0.01 -0.138l0 -0.016v0.001q0 -0.427 0 -0.854z"/></svg>