<svg xmlns="http://www.w3.org/2000/svg" id="youtube" viewBox="2.159 9.29 48 33.737" width="48" height="33.737"><path d="M50.159 21.176a18.537 18.537 0 0 0 -1.985 -9.007 6.368 6.368 0 0 0 -3.751 -2.181A170.104 170.104 0 0 0 26.17 9.312a172.285 172.285 0 0 0 -18.188 0.654 6.259 6.259 0 0 0 -3.184 1.614c-1.963 1.81 -2.181 4.907 -2.399 7.524a104.68 104.68 0 0 0 0 14.132 20.936 20.936 0 0 0 0.654 4.362 6.848 6.848 0 0 0 1.548 2.966 6.237 6.237 0 0 0 3.249 1.701 98.137 98.137 0 0 0 14.175 0.72c7.633 0.109 14.328 0 22.244 -0.611a6.324 6.324 0 0 0 3.337 -1.701 5.452 5.452 0 0 0 1.33 -2.181 23.117 23.117 0 0 0 1.134 -7.415c0.087 -1.221 0.087 -8.592 0.087 -9.901M21.241 32.385V18.886l12.91 6.782c-3.62 2.006 -8.396 4.274 -12.91 6.717" fill="#fe0000" class="color000000 svgShape"/></svg>